<svg xmlns="http://www.w3.org/2000/svg" width="112.999" height="25.012" viewBox="0 0 112.999 25.012"><g data-name="Group 35370"><g data-name="Group 35355"><g data-name="Group 35348"><path data-name="Path 37431" d="M31.219 13.222v-.652h4.448v.556a5.131 5.131 0 01-1.114 3.49 3.859 3.859 0 01-3.061 1.276 4.375 4.375 0 01-3.392-1.409 5.575 5.575 0 01.012-7.159 4.4 4.4 0 013.408-1.425 5.838 5.838 0 011.22.126 3.942 3.942 0 01.956.32 5.92 5.92 0 01.652.383 2.889 2.889 0 01.406.319l.127.126-.414.525c-.031-.031-.075-.071-.127-.119s-.174-.138-.359-.272a4.208 4.208 0 00-.588-.351 4.044 4.044 0 00-.822-.273 4.649 4.649 0 00-1.05-.118 3.664 3.664 0 00-2.914 1.251 4.939 4.939 0 00-.008 6.161 3.633 3.633 0 002.891 1.244 3.289 3.289 0 002.508-1 3.889 3.889 0 00.964-2.741v-.257z" fill="#333"/></g><g data-name="Group 35349"><path data-name="Path 37432" d="M48.234 16.466a4.721 4.721 0 01-6.744 0 5.085 5.085 0 01-1.283-3.554 5.166 5.166 0 011.284-3.594 4.7 4.7 0 016.744 0 5.154 5.154 0 011.291 3.594 5.087 5.087 0 01-1.291 3.554zm-3.381.746a3.593 3.593 0 002.883-1.251 4.547 4.547 0 001.066-3.053 4.612 4.612 0 00-1.066-3.1 3.6 3.6 0 00-2.883-1.252 3.559 3.559 0 00-2.865 1.26 4.621 4.621 0 00-1.066 3.092 4.531 4.531 0 001.074 3.053 3.576 3.576 0 002.858 1.251z" fill="#333"/></g><g data-name="Group 35350"><path data-name="Path 37433" d="M60.803 17.665h-5.927V8.102h.7v8.909H60.8z" fill="#333"/></g><g data-name="Group 35351"><path data-name="Path 37434" d="M73.073 15.086a2.252 2.252 0 01-.877 1.928 3.89 3.89 0 01-2.373.651H65.76v-9.56h3.838a3.666 3.666 0 012.318.66 2.285 2.285 0 01.837 1.9 2.05 2.05 0 01-1.544 2.137v.047a2.556 2.556 0 011.354.79 2.12 2.12 0 01.51 1.447zm-1.035-4.383a1.7 1.7 0 00-.652-1.458 2.929 2.929 0 00-1.785-.486H66.46v3.775h3.139a2.942 2.942 0 001.793-.479 1.593 1.593 0 00.644-1.355zm-2.136 2.487H66.46v3.823h3.392a3 3 0 001.817-.5 1.7 1.7 0 00.687-1.457 1.555 1.555 0 00-.687-1.354 3.152 3.152 0 00-1.765-.513z" fill="#333"/></g><g data-name="Group 35352"><path data-name="Path 37435" d="M81.817 8.102l4 9.56h-.733l-1.035-2.5h-5.131l-1.035 2.5h-.731l4-9.56zm-.333.861l-2.294 5.544h4.589z" fill="#333"/></g><g data-name="Group 35353"><path data-name="Path 37436" d="M98.707 17.665v-8.33l-3.475 4.558h-.32l-3.474-4.542v8.316h-.7V8.102h.6l3.728 4.893 3.744-4.893h.6v9.56z" fill="#333"/></g><g data-name="Group 35354"><path data-name="Path 37437" d="M109.001 8.102l4 9.56h-.733l-1.035-2.5h-5.131l-1.034 2.5h-.733l4-9.56zm-.333.861l-2.294 5.544h4.588z" fill="#333"/></g></g><g data-name="Group 35368"><g data-name="Group 35366"><g data-name="Group 35357"><g data-name="Group 35356"><path data-name="Path 37438" d="M18.415 7.631l-7.2 9.235-2.4-3.422z" fill="#bf1f53"/></g></g><g data-name="Group 35359"><g data-name="Group 35358"><path data-name="Path 37439" d="M13.524 9.422L3.963 6.401l3.982 6.409z" fill="#bf1f53"/></g></g><g data-name="Group 35360"><path data-name="Path 37440" d="M11.066 3.243L5.608 5.936l3.51 1.048 2.466-1.01 1.219 2.11 2.078.619 3.688-2.013z" fill="#bf1f53"/></g><g data-name="Group 35362"><g data-name="Group 35361"><path data-name="Path 37441" d="M5.608 17.859l4.331 2.862-2.052 1.12z" fill="#bf1f53"/></g></g><g data-name="Group 35363"><path data-name="Path 37442" d="M11.266 16.107v8.723" fill="#092f3c"/><path data-name="Rectangle 8985" fill="#bf1e53" d="M11.039 16.107h.454v8.723h-.454z"/></g><g data-name="Group 35365"><g data-name="Group 35364"><path data-name="Path 37443" d="M16.922 15.219l-4.331 2.865 2.052 1.12z" fill="#bf1f53"/></g></g></g><g data-name="Group 35367"><path data-name="Path 37444" d="M22.542 25.012H0V0h22.542zm-22.1-.438H22.1V.438H.44z" fill="#bf1e53"/></g></g></g></svg>